<svg version="1.1" id="Layer_1" xmlns="http://www.w3.org/2000/svg" xmlns:xlink="http://www.w3.org/1999/xlink" x="0px" y="0px"
	 width="100%" viewBox="0 0 720 1024" enable-background="new 0 0 720 1024" xml:space="preserve">
<path fill="#000000" opacity="1.000000" stroke="none" 
	d="
M396.015808,753.821899 
	C437.944305,748.948181 476.673920,736.178223 512.102417,713.814697 
	C528.763123,703.298035 544.368652,691.359802 559.619202,678.928528 
	C564.030701,675.332520 568.646179,672.071716 574.295898,670.648560 
	C577.208252,669.914978 579.992371,669.904907 582.061707,672.458435 
	C583.968262,674.811035 583.594849,677.471680 582.511658,680.026978 
	C579.858643,686.285278 575.440552,691.297119 570.750061,696.049316 
	C547.882996,719.216736 520.945740,736.569946 491.871368,750.770325 
	C449.382721,771.522522 404.562378,783.989319 357.470612,788.465088 
	C305.874207,793.368896 255.239960,789.299194 206.426804,771.151245 
	C128.095657,742.028809 77.338356,686.848022 53.578690,606.808350 
	C45.288773,578.881897 41.470276,550.289368 40.560345,521.176086 
	C37.728283,430.564301 64.321243,349.077057 117.008606,275.970154 
	C161.919907,213.653030 219.890991,167.430176 291.406586,138.743729 
	C322.339294,126.335953 354.418182,118.329216 387.677704,115.490921 
	C445.208160,110.581398 501.549377,115.836464 555.470886,137.553314 
	C618.565308,162.964569 661.181824,208.042648 681.939819,273.110687 
	C688.587646,293.949127 691.995850,315.428864 693.504211,337.289642 
	C695.339722,363.892273 693.492554,390.132935 688.340393,416.261322 
	C686.102173,427.611908 679.484314,436.619354 673.902161,446.204041 
	C662.332031,466.070282 649.465027,485.068420 635.246155,503.152588 
	C631.813660,507.518097 627.921570,511.412781 623.589722,514.747437 
	C613.201904,522.743896 599.375305,519.372681 592.488037,507.428070 
	C586.463806,496.980286 585.210449,485.358215 584.787231,473.686859 
	C584.413086,463.370361 584.863525,453.025543 584.844238,442.693420 
	C584.840149,440.482910 585.667725,437.540405 582.815857,436.579071 
	C579.807983,435.565094 578.356567,438.341187 576.988770,440.296783 
	C568.156189,452.924896 563.392700,467.302490 559.476135,481.999359 
	C558.064209,487.297577 557.030640,492.697968 555.873413,498.062317 
	C554.929443,502.438110 551.537476,504.485321 545.396423,504.297760 
	C539.828003,504.127686 536.211670,501.705292 535.751953,497.512268 
	C534.587158,486.887634 534.485352,476.225098 535.219910,465.570801 
	C535.896973,455.749542 535.829468,445.927216 535.670898,436.098877 
	C535.646545,434.588501 535.542053,433.084808 534.071350,431.740021 
	C530.402222,432.693176 528.927246,435.983734 527.297058,438.916565 
	C519.367126,453.182831 514.935547,468.713623 511.447815,484.512054 
	C509.223175,494.588867 506.906036,504.630585 504.093933,514.557068 
	C503.346680,517.194885 502.379852,519.783081 499.124512,520.087524 
	C495.698639,520.407959 493.560699,518.521301 491.993683,515.641846 
	C486.921082,506.320679 485.578613,496.073151 484.800232,485.768951 
	C483.545013,469.152618 483.189606,452.527527 484.656860,435.870972 
	C485.594421,425.227692 489.413940,421.480072 499.349823,422.719421 
	C504.319427,423.339325 506.209991,425.569733 506.372650,430.601746 
	C506.739197,441.941589 504.685181,453.206329 505.528198,465.924927 
	C507.485107,460.247284 509.096558,455.754730 510.580322,451.220398 
	C512.402161,445.652954 514.837524,440.368500 517.729492,435.291870 
	C519.895996,431.488739 522.623779,428.124390 526.204590,425.561462 
	C533.135376,420.600861 540.049622,421.877228 544.570251,429.105743 
	C549.263184,436.609772 550.736816,445.192322 552.312622,453.707703 
	C552.884338,456.797241 553.336548,459.908905 554.004456,463.996674 
	C556.781555,457.980011 559.108765,452.804535 561.551208,447.684021 
	C564.002930,442.544067 567.011475,437.730530 570.983337,433.626831 
	C579.300476,425.033722 590.288879,426.787903 595.365967,437.496460 
	C600.943542,449.260773 602.531921,461.990997 604.371399,474.683228 
	C605.896729,485.207794 607.675903,495.700378 609.593262,506.161224 
	C610.522095,511.228577 613.430359,512.131348 617.376404,508.723450 
	C623.130005,503.754333 625.623718,496.732727 628.654358,490.072540 
	C639.189941,466.919189 646.296143,442.764008 650.104919,417.606079 
	C651.674744,407.236664 652.797363,396.823792 653.600525,386.384552 
	C655.511658,361.542053 654.578186,336.817810 649.798889,312.307007 
	C635.995544,241.514618 597.378845,189.859009 531.425720,159.573929 
	C503.905884,146.937088 474.730377,140.555145 444.606689,138.040802 
	C400.462677,134.356232 357.083099,138.000137 314.885193,151.839859 
	C241.792511,175.812225 187.739670,222.940063 149.786697,289.183868 
	C127.022072,328.917725 113.073189,371.791229 105.185028,416.784485 
	C99.353233,450.048370 96.938072,483.567444 98.428230,517.249390 
	C100.806175,570.997681 113.921730,621.601746 145.906647,665.879822 
	C179.725647,712.696838 226.121140,739.966736 282.175049,751.646301 
	C311.445648,757.745239 341.027557,757.861511 370.707397,756.101379 
	C379.021515,755.608337 387.321808,755.068787 396.015808,753.821899 
z"/>
<path fill="#000000" opacity="1.000000" stroke="none" 
	d="
M415.929810,337.325684 
	C418.272430,350.008057 420.260406,362.315247 421.424835,374.740173 
	C421.792358,378.662018 423.466705,380.507629 427.650787,379.312683 
	C430.057373,378.625397 432.601227,378.447174 435.085144,378.922394 
	C436.768646,379.244507 438.358276,379.971283 438.299774,382.105499 
	C438.250977,383.885284 437.024261,384.792755 435.467316,385.135468 
	C433.357361,385.599884 431.204620,386.172333 429.071808,386.165985 
	C424.962250,386.153778 422.901062,387.490295 423.312256,392.044373 
	C426.020447,422.038483 427.688629,452.104401 429.548523,482.159973 
	C431.039001,506.246338 432.784546,530.313782 433.319489,554.446289 
	C433.469360,561.208069 430.466003,564.001099 423.144958,564.296387 
	C414.774445,564.634033 410.140045,561.542114 409.815826,554.959839 
	C408.702026,532.346252 407.624329,509.729675 406.742218,487.106110 
	C405.587402,457.488861 404.678558,427.862061 403.560425,398.243286 
	C403.244049,389.862946 402.996979,389.833496 394.840515,391.198944 
	C373.000641,394.855011 351.432770,399.731201 329.980988,405.207062 
	C325.458893,406.361389 323.507935,408.504578 322.565308,413.027069 
	C316.728394,441.030640 311.950378,469.218292 307.342529,497.440033 
	C304.664429,513.842590 301.915558,530.233582 299.233490,546.635559 
	C298.624847,550.357666 296.344696,551.634399 292.842194,551.321045 
	C288.827820,550.961853 289.221741,548.197144 289.646362,545.433105 
	C292.799194,524.910217 295.897095,504.378632 299.127563,483.867950 
	C302.951172,459.591217 307.219788,435.391479 312.446381,410.580750 
	C303.688293,412.364380 295.856232,415.447968 287.864044,417.934570 
	C284.368134,419.022217 280.944824,420.343201 277.448975,421.431061 
	C276.044830,421.868011 274.527740,422.196930 273.073914,422.155884 
	C271.191498,422.102753 269.211578,421.404968 268.745148,419.396027 
	C268.161163,416.880798 270.534180,416.460327 272.161102,415.918152 
	C284.480896,411.812653 296.776947,407.618591 309.206451,403.870178 
	C313.092529,402.698212 314.839722,400.739044 315.722168,396.886200 
	C323.095215,364.693542 331.971100,332.999512 347.556244,303.597260 
	C351.487274,296.181122 356.018433,289.254639 362.433868,283.709381 
	C371.917908,275.511688 383.918549,275.526154 393.234497,283.940186 
	C400.097900,290.139038 404.002563,298.249634 407.276550,306.692413 
	C411.076904,316.492737 413.738708,326.623383 415.929810,337.325684 
M343.149933,340.510345 
	C336.247406,359.284851 330.721924,378.440796 326.073883,398.842010 
	C351.242920,392.395355 375.378418,387.014648 399.833954,383.179901 
	C402.422455,382.774048 402.662598,381.016266 402.388885,378.699585 
	C401.707031,372.927948 401.269531,367.127289 400.743713,361.337402 
	C399.073975,342.950928 396.696869,324.675415 391.658234,306.859528 
	C389.935486,300.768066 387.635529,294.853424 384.099518,289.544403 
	C380.072601,283.498352 376.256012,282.987610 371.048248,287.871643 
	C368.633087,290.136658 366.370300,292.626038 364.378174,295.269714 
	C354.306122,308.636047 348.954712,324.258392 343.149933,340.510345 
z"/>
<path fill="#000000" opacity="1.000000" stroke="none" 
	d="
M223.247162,351.998840 
	C223.248657,413.858429 227.406494,475.023773 230.910858,536.256409 
	C234.595261,536.336182 237.127060,533.970276 240.044144,535.471924 
	C241.407181,536.173523 242.882721,536.783081 243.017044,538.509766 
	C243.138885,540.076111 241.875595,540.796875 240.660156,541.417419 
	C239.918701,541.795959 239.185486,542.215027 238.403519,542.485718 
	C233.189896,544.289612 229.340729,546.852051 229.877441,553.438110 
	C230.091110,556.060120 229.190750,559.352478 225.602081,559.938416 
	C222.112900,560.508118 219.280518,559.237793 217.986069,555.774414 
	C216.917328,552.914917 215.177872,553.517761 213.236893,554.489075 
	C208.022430,557.098450 202.838348,559.769714 197.596375,562.322266 
	C195.969360,563.114563 194.240479,563.861206 192.477798,564.170776 
	C190.158081,564.578186 187.983688,563.767456 187.261429,561.342773 
	C186.573837,559.034363 188.627213,558.213989 190.250137,557.387634 
	C197.227356,553.834961 204.190689,550.252502 211.226318,546.818542 
	C213.658066,545.631653 214.420990,544.344482 213.977966,541.401672 
	C209.841461,513.924683 207.295822,486.286804 205.542511,458.550690 
	C203.577850,427.471588 201.920761,396.398682 201.471786,365.249084 
	C201.262939,350.759766 200.551819,336.292114 201.566940,321.808716 
	C201.702972,319.867828 202.022812,317.810913 200.639206,315.304749 
	C195.401886,316.084351 190.503677,318.457489 185.506149,320.464569 
	C183.190903,321.394409 180.970123,322.622986 178.337860,322.245575 
	C176.762726,322.019714 175.366547,321.439606 174.951691,319.758820 
	C174.486633,317.874573 175.877121,317.080139 177.278885,316.429474 
	C183.933731,313.340363 190.750809,310.664124 197.745560,308.443390 
	C199.880096,307.765686 201.864410,307.003784 201.689117,304.127350 
	C201.405151,299.467743 203.520294,296.605774 208.128860,295.416290 
	C213.415314,294.051849 218.906631,295.059967 221.268250,298.803650 
	C222.836380,301.289490 224.278030,301.490631 226.938492,301.022186 
	C233.315140,299.899323 239.698776,298.573608 246.230713,298.632568 
	C248.439240,298.652496 251.060135,298.688354 251.319855,301.468353 
	C251.615173,304.629547 248.823944,304.913666 246.490128,305.252594 
	C240.404053,306.136536 234.325500,307.090576 228.220276,307.818146 
	C223.790543,308.346008 222.043304,310.353668 222.266434,315.032501 
	C222.845520,327.175873 222.949585,339.341858 223.247162,351.998840 
z"/>
<path fill="#000000" opacity="1.000000" stroke="none" 
	d="
M455.918457,383.145935 
	C457.552521,377.842529 459.131927,372.947235 460.586395,368.015076 
	C461.545563,364.762390 463.601654,362.909424 466.964447,362.652710 
	C470.982910,362.345917 475.010406,362.218079 478.107300,365.502655 
	C479.216949,366.679535 479.580200,368.185364 478.957123,369.674805 
	C476.141724,376.405365 473.843994,383.416016 469.355164,389.303009 
	C466.664246,392.832092 463.442627,396.303680 458.492096,394.082336 
	C453.669342,391.918335 455.392700,387.407501 455.918457,383.145935 
z"/>
</svg>
